# xmcd
#
# Track frame offsets:
#	150
#	17824
#	36231
#	50722
#	65511
#	77657
#	94885
#	112491
#	133986
#	151582
#	177109
#	192756
#	210211
#	225909
#
# Disc length: 3319 seconds
#
# Revision: 1
# Processed by: cddbd v1.5.2PL0 Copyright (c) Steve Scherf et al.
# Submitted via: audiograbber 1.83.01
#
DISCID=b70cf50e
DTITLE=Silbermond - Nichts passiert
DYEAR=2009
DGENRE=Pop
TTITLE0=Alles Gute
TTITLE1=Nichts passiert
TTITLE2=Ich bereue nichts
TTITLE3=Irgendwas bleibt
TTITLE4=Tanz aus der Reihe
TTITLE5=Krieger des Lichts
TTITLE6=Nicht mein Problem
TTITLE7=Keine Angst
TTITLE8=Die Liebe lässt mich nicht
TTITLE9=Nichts mehr
TTITLE10=Nach Haus
TTITLE11=Bist Du dabei
TTITLE12=Weg für immer
TTITLE13=Sehn wir uns wieder
EXTD=
EXTT0=
EXTT1=
EXTT2=
EXTT3=
EXTT4=
EXTT5=
EXTT6=
EXTT7=
EXTT8=
EXTT9=
EXTT10=
EXTT11=
EXTT12=
EXTT13=
PLAYORDER=
